<svg width="700" height="700" viewBox="0 0 700 700" fill="none" xmlns="http://www.w3.org/2000/svg">
<path d="M699.837 340.889L698.264 315.336C698.064 312.943 696.424 309.672 694.621 308.07L683.571 302.778C681.244 302.197 677.363 301.558 674.961 301.377L643.238 298.879C640.836 298.688 638.499 296.609 638.023 294.245L634.533 278.693C633.932 276.367 632.922 272.562 632.292 270.236L627.725 255.438C626.953 253.159 627.963 250.184 629.947 248.83L656.072 231.057C658.065 229.703 659.734 228.578 659.781 228.55C659.829 228.521 661.288 227.139 663.023 225.47L670.041 215.325C670.813 213.046 670.622 209.385 669.621 207.192L660.334 188.046C659.247 185.9 657.359 182.439 656.158 180.351L651.086 171.503C649.875 169.415 647.834 166.049 646.537 164.028L634.228 145.768C632.855 143.804 631.682 142.174 631.653 142.155C631.653 142.155 631.654 142.155 631.625 142.145C630.986 141.811 630.986 141.811 630.986 141.811C630.242 141.506 629.623 141.249 629.623 141.249C629.604 141.239 627.611 141.03 625.218 140.772L615.225 142.164C612.927 142.908 611.001 143.528 610.963 143.556C610.925 143.585 609.104 144.453 606.92 145.492L578.373 159.117C576.208 160.147 573.129 159.518 571.546 157.716L561.153 146.407C559.475 144.691 556.7 141.897 554.993 140.2L543.237 129.245C541.435 127.652 540.815 124.572 541.864 122.408L555.69 93.8036C556.738 91.6297 557.606 89.8467 557.606 89.8467C557.625 89.8276 558.016 89.0553 558.502 88.1208C558.502 88.1208 558.502 88.1208 558.893 87.2627C560.18 84.3927 560.857 81.4369 560.991 78.5956C561.143 75.144 560.476 73.2561 560.476 73.2561C559.666 70.9868 557.406 67.9928 555.442 66.6008L536.458 53.7573C534.427 52.4511 531.08 50.3916 528.992 49.1902L521.707 44.9567C519.629 43.7458 516.177 41.8483 514.032 40.7518L494.171 30.9977C491.987 29.987 488.45 29.3577 486.314 29.6056C486.314 29.6056 486.314 29.6056 484.407 30.3684C479.935 32.1228 475.645 37.2716 475.645 37.2716C474.119 39.1309 471.745 42.2584 470.381 44.2511L452.38 70.4719C451.007 72.4551 448.032 73.4468 445.753 72.6649L430.831 68.0024C428.505 67.3635 424.7 66.3338 422.374 65.7235L406.975 62.1957C404.62 61.7094 402.541 59.3638 402.36 56.961L400.053 25.4294C399.862 23.0361 399.738 21.0243 399.738 20.9766C399.738 20.9194 399.566 18.9171 399.366 16.5238C399.366 16.5238 399.271 15.2176 398.413 12.7099C396.887 8.14274 393.788 5.26322 393.788 5.26322C392.024 3.62323 388.63 2.09766 386.237 1.88789L361.103 0.209778C358.691 0.0953603 354.753 0.00954777 352.34 0.00954777L349.709 0C347.287 0 343.368 0.0667457 340.946 0.162094L315.383 1.73535C312.99 1.93558 309.71 3.57556 308.108 5.3681L302.788 16.4094C302.197 18.7455 301.73 20.7001 301.73 20.7573C301.73 20.805 301.567 22.8168 301.377 25.2196L298.907 56.7608C298.707 59.1541 296.638 61.5092 294.264 61.9764L279.332 65.3136C277.006 65.9142 273.182 66.9154 270.856 67.5447L255.457 72.2644C253.178 73.0272 250.203 72.0261 248.859 70.0428L230.962 43.7267C229.608 41.7435 227.32 38.5398 225.87 36.6137C225.87 36.6137 223.477 33.4386 220.283 31.4459C217.375 29.6438 215.506 29.3101 215.506 29.3101C213.132 28.9001 209.404 29.3768 207.211 30.378L187.55 39.9223C185.405 41.0188 181.944 42.8972 179.855 44.0986L171.98 48.6181C169.882 49.8195 166.526 51.8599 164.504 53.1662L145.883 65.6854C143.919 67.0775 142.012 68.7652 141.63 69.4517C141.63 69.4517 141.63 69.4517 141.392 70.1191C141.316 70.2907 141.258 70.4719 141.192 70.6626C140.887 71.5875 140.648 72.56 140.486 73.5516C140.458 73.7042 140.438 73.8568 140.41 74.0093C140.267 75.0772 140.21 76.1832 140.21 77.3084C140.21 77.3942 140.21 77.48 140.219 77.5658C140.267 78.7672 140.267 78.7672 140.267 78.7672C140.477 80.1211 140.648 81.2367 140.648 81.2367C140.648 81.2367 140.982 82.4286 141.392 83.8493C141.792 85.2699 144.395 90.6952 145.435 92.8692L159.146 121.579C160.175 123.752 159.546 126.823 157.725 128.405L146.293 138.951C144.586 140.639 141.783 143.413 140.105 145.12L129.292 156.753C127.7 158.555 124.62 159.174 122.456 158.126L93.9943 144.376C91.8203 143.327 90.0088 142.45 89.9706 142.422C89.9134 142.393 88.0827 141.564 85.8897 140.572C85.8897 140.572 83.4964 139.504 80.3118 139.123C76.2404 138.627 73.3514 139.59 73.3514 139.59C71.063 140.343 68.0405 142.565 66.658 144.529L54.072 163.084C52.7657 165.105 50.7062 168.461 49.5048 170.54L44.5086 179.178C43.2881 181.257 41.4002 184.709 40.3037 186.854L31.0645 205.723C30.0633 207.907 29.4721 211.645 29.7582 214.028C29.7582 214.028 29.7582 214.028 30.6735 216.145C32.4947 220.388 37.3002 224.335 37.3002 224.335C39.1595 225.861 40.7042 227.129 40.7423 227.148C40.7804 227.167 42.4204 228.302 44.3941 229.656L70.5291 247.6C72.5219 248.964 73.504 251.948 72.7221 254.227L68.0882 269.044C67.4398 271.361 66.4196 275.165 65.8093 277.492L62.2529 292.986C61.7666 295.341 59.421 297.41 56.9992 297.591L25.3149 299.927C22.9217 300.109 20.948 300.252 20.948 300.252C20.948 300.252 20.3664 300.261 19.7085 300.28C19.7085 300.28 19.7085 300.28 19.1078 300.318C15.9708 300.528 13.0246 301.3 10.4502 302.502C6.95088 304.113 5.20601 306.116 5.20601 306.116C3.62323 307.918 2.15487 311.369 1.92603 313.762L0.20976 339.192C0.0953421 341.604 0.00952959 345.542 0.00952959 347.945L0 350.205C0 352.617 0.0667404 356.555 0.171623 358.958L1.73533 384.749C1.9451 387.152 3.46113 390.546 5.11066 392.31C5.11066 392.31 8.02831 395.419 12.5955 396.954C15.0745 397.802 16.3141 397.917 16.3141 397.917C18.7073 398.117 22.6357 398.441 25.0289 398.622L56.7417 401.101C59.1445 401.292 61.4996 403.38 61.9573 405.735L65.3898 421.029C66.0001 423.356 67.0107 427.17 67.6496 429.487L72.2835 444.561C73.0368 446.84 72.0451 449.824 70.0524 451.169L43.9174 468.942C41.9246 470.286 40.256 471.421 40.2179 471.44C40.1607 471.478 38.5302 472.651 36.566 474.052C36.566 474.052 34.5923 475.473 32.6949 477.971C30.111 481.327 29.4531 484.541 29.4531 484.541C28.9573 486.905 29.3768 490.624 30.3875 492.807L39.6839 512.011C40.7995 514.156 42.6683 517.617 43.8602 519.705L48.8564 528.401C50.0483 530.499 52.0983 533.855 53.4045 535.886L65.7522 554.212C67.1347 556.185 68.4124 557.883 68.6031 557.987C68.6031 557.987 68.6031 557.987 68.7938 558.083C69.2705 558.312 69.2705 558.312 69.2705 558.312C69.8235 558.521 70.2907 558.712 70.3289 558.722C70.3765 558.731 70.7103 558.846 70.9772 558.922C70.9772 558.922 70.9772 558.922 71.2156 558.989C72.0261 559.237 72.0261 559.237 72.0261 559.237C72.97 559.437 73.7709 559.58 73.7995 559.58C73.7995 559.58 73.7995 559.58 73.8472 559.599C78.5669 560.295 84.8218 557.987 84.8218 557.987C87.072 557.148 88.9599 556.452 88.979 556.433C89.0171 556.414 90.8192 555.556 92.9931 554.517L121.598 540.863C123.772 539.824 126.842 540.453 128.425 542.255L138.598 553.334C140.286 555.06 143.061 557.844 144.758 559.551L156.743 570.716C158.545 572.318 159.165 575.398 158.126 577.562L144.319 606.148C143.289 608.312 142.412 610.095 142.403 610.114C142.393 610.133 142.374 610.181 142.355 610.229C142.355 610.229 142.355 610.229 142.326 610.267C140.143 614.062 139.065 618.114 139.008 621.928C138.932 625.179 139.485 626.705 139.485 626.705C140.305 628.965 142.574 631.949 144.538 633.341L163.541 646.213C165.563 647.519 168.928 649.57 171.007 650.78L178.358 655.042C180.427 656.253 183.889 658.132 186.024 659.247L205.809 668.954C207.993 669.974 210.395 670.775 211.158 670.746C211.158 670.746 211.158 670.746 211.854 670.632C217.642 669.717 224.211 662.565 224.211 662.565C225.832 660.792 228.273 657.712 229.627 655.729L247.658 629.48C249.031 627.496 251.996 626.505 254.284 627.296L269.492 632.044C271.8 632.693 275.595 633.723 277.94 634.323L293.043 637.775C295.389 638.252 297.458 640.607 297.649 643.01L299.975 674.503C300.147 676.906 300.29 678.918 300.29 678.975C300.29 679.051 300.757 681.006 301.329 683.351L306.516 694.393C308.099 696.204 311.35 697.873 313.762 698.102L338.849 699.78C341.261 699.894 345.199 699.98 347.602 699.98H350.376C352.779 699.98 356.726 699.923 359.129 699.818L384.759 698.235C387.152 698.035 390.623 696.595 392.472 695.041C392.472 695.041 393.865 693.868 395.447 690.922C397.24 687.594 397.736 683.656 397.736 683.656C398.041 681.254 398.298 679.29 398.298 679.261C398.298 679.223 398.451 677.23 398.632 674.837L401.111 643.21C401.302 640.826 403.38 638.471 405.754 638.004C405.754 638.004 417.358 635.706 424.738 633.627C432.557 631.701 444.542 627.706 444.542 627.706C446.821 626.943 449.815 627.935 451.159 629.937L469.018 656.187C470.381 658.179 471.478 659.819 471.497 659.839C471.497 659.858 471.964 660.582 472.489 661.44C472.489 661.44 472.489 661.44 473.032 662.194C475.769 665.96 479.287 668.706 482.996 670.184C484.913 670.946 484.913 670.946 484.913 670.946C487.058 671.194 490.595 670.594 492.769 669.593L512.421 660.058C514.566 658.961 518.017 657.083 520.115 655.881L528.105 651.295C530.193 650.103 533.55 648.053 535.581 646.757L554.135 634.266C556.1 632.874 558.016 631.167 558.407 630.452C558.407 630.452 558.407 630.452 558.674 629.756C558.712 629.623 558.76 629.518 558.807 629.384C559.122 628.431 559.38 627.449 559.542 626.409C559.561 626.238 559.589 626.085 559.618 625.914C559.761 624.912 559.818 623.873 559.799 622.834C559.799 622.615 559.799 622.614 559.799 622.614C559.79 622.376 559.761 622.109 559.761 622.023C559.761 622.023 559.761 622.023 559.761 621.938C559.704 620.965 559.589 620.002 559.427 619.01C559.38 618.81 559.341 618.591 559.275 618.381C559.055 617.304 558.731 616.217 558.35 615.139C558.283 614.939 558.197 614.748 558.13 614.548C557.711 613.461 557.711 613.461 557.711 613.461C557.11 612.307 556.605 611.297 556.576 611.249C556.548 611.201 555.623 609.275 554.583 607.092L540.872 578.354C539.843 576.189 540.462 573.1 542.284 571.517L554.088 560.638C555.813 558.941 558.588 556.157 560.285 554.45L570.726 543.189C572.328 541.387 575.408 540.768 577.572 541.807L606.014 555.556C608.179 556.605 610 557.482 610.038 557.511C610.086 557.539 612.031 558.102 614.348 558.769L626.61 559.761C628.965 559.275 632.025 557.272 633.418 555.308L645.937 536.849C647.243 534.827 649.303 531.471 650.513 529.393L655.538 520.706C656.749 518.618 658.637 515.157 659.743 513.021L668.982 494.114C669.984 491.93 670.517 488.193 670.174 485.809C670.174 485.809 670.069 485.113 668.849 482.691C666.932 478.868 662.747 475.53 662.747 475.53C660.859 474.033 659.276 472.784 659.219 472.756C659.181 472.717 657.502 471.583 655.51 470.219L629.508 452.37C627.515 450.997 626.533 448.032 627.315 445.744C627.315 445.744 631.062 434.721 632.941 427.36C635.229 419.542 637.803 406.984 637.803 406.984C638.271 404.629 640.635 402.551 643.038 402.379L674.732 400.043C677.125 399.862 679.089 399.719 679.089 399.719C679.089 399.719 679.699 399.709 680.415 399.69C680.415 399.69 680.415 399.69 681.044 399.652C686.088 399.28 690.598 397.507 693.945 394.809C695.48 393.588 695.48 393.588 695.48 393.588C696.71 391.958 697.901 388.659 698.121 386.256L699.799 361.141C699.894 358.738 699.999 354.8 699.999 352.398V349.632C700.009 347.23 699.942 343.292 699.837 340.889ZM350.004 622.376C199.831 622.376 77.6421 500.187 77.6421 350.004C77.6421 199.821 199.831 77.6421 350.004 77.6421C500.187 77.6421 622.376 199.821 622.376 350.004C622.376 500.187 500.187 622.376 350.004 622.376Z" fill="#006998"/>
<path d="M342.701 230.59H355.554V169.357H377.941V156.495H355.554V134.374H342.701V156.495H320.313V169.357H342.701V230.59Z" fill="#006998"/>
<path d="M479.487 332.126L454.086 259.576C452.942 256.258 449.281 253.655 445.763 253.655H404.629C397.831 251.414 389.364 248.63 379.734 248.63C362.352 248.63 351.797 258.536 351.358 258.956C350.882 259.414 350.443 259.986 350.023 260.577C349.604 259.986 349.165 259.404 348.689 258.956C348.259 258.536 337.704 248.63 320.322 248.63C310.664 248.63 302.216 251.414 295.437 253.655H254.265C250.747 253.655 247.085 256.258 245.932 259.566L220.645 331.859C218.443 332.164 215.878 332.555 214.124 332.851L118.928 348.965C117.726 349.165 117.097 349.556 117.088 349.994C117.069 350.042 117.088 350.08 117.097 350.118C117.097 350.185 117.097 350.242 117.135 350.3C117.212 350.452 117.364 350.605 117.583 350.757C117.841 350.957 118.175 351.167 118.661 351.358L207.421 387.829C209.652 388.754 211.463 391.461 211.463 393.883V487.277C211.463 489.689 212.436 493.37 213.628 495.467C213.628 495.467 236.34 535.428 349.118 535.428H349.137C461.924 535.428 484.655 495.467 484.655 495.467C485.847 493.36 486.82 489.689 486.82 487.277V393.883C486.82 391.461 488.631 388.754 490.862 387.829L579.631 351.358C580.108 351.158 580.461 350.957 580.718 350.757C580.928 350.605 581.081 350.452 581.157 350.3C581.176 350.271 581.157 350.233 581.176 350.195C581.205 350.128 581.233 350.052 581.214 349.994C581.186 349.546 580.575 349.165 579.364 348.965L484.178 332.851C482.863 332.641 481.165 332.384 479.487 332.126ZM352.684 268.291C352.684 266.593 353.809 263.981 355.029 262.808C355.134 262.722 364.45 253.96 379.734 253.96C388.544 253.96 396.22 256.496 402.989 258.727C408.424 260.52 413.115 262.074 417.492 262.074L418.15 262.064C428.857 261.664 441.958 260.71 442.235 260.691C443.379 260.691 444.685 261.626 445.019 262.694L468.646 338.753C468.741 339.087 468.732 339.373 468.598 339.573C468.475 339.773 468.208 339.897 467.855 339.935C467.626 339.954 444.494 342.262 421.935 342.262C411.599 342.262 405.688 337.866 399.442 333.213C392.511 328.064 385.35 322.754 372.392 322.754C362.342 322.754 356.307 325.948 352.693 329.905L352.684 268.291ZM420.705 370.742V400.024C420.705 402.426 419.094 405.535 417.129 406.936L415.661 407.976C413.716 409.368 412.105 408.548 412.105 406.145V376.864C412.105 374.461 413.716 371.343 415.661 369.951L417.129 368.912C419.094 367.51 420.705 368.339 420.705 370.742ZM408.224 376.854V414.288C408.224 416.691 406.26 418.664 403.847 418.664H294.407C292.014 418.664 290.04 416.691 290.04 414.288V376.854C290.04 374.451 292.014 372.478 294.407 372.478H403.847C406.25 372.478 408.224 374.451 408.224 376.854ZM340.593 351.882C338.277 349.909 334.215 348.431 331.164 348.431H296.18C305.315 344.483 311.999 338.772 327.636 338.772C347.83 338.772 349.222 346.886 349.222 346.886C349.222 349.241 350.777 349.241 350.777 346.886C350.777 346.886 352.235 338.772 372.363 338.772C388.01 338.772 394.694 344.483 403.828 348.431H368.855C365.784 348.431 361.742 349.918 359.415 351.882C359.358 351.921 354.848 355.658 350.014 355.658C345.17 355.658 340.593 351.882 340.593 351.882ZM255.028 262.694C255.362 261.626 256.649 260.701 257.936 260.701H257.955C258.089 260.71 271.199 261.664 281.926 262.064L282.564 262.074C286.941 262.074 291.623 260.52 297.057 258.727C303.827 256.496 311.512 253.96 320.322 253.96C335.492 253.96 344.941 262.732 345.018 262.808C346.248 263.99 347.363 266.593 347.363 268.291V329.905C343.749 325.938 337.714 322.754 327.664 322.754C314.706 322.754 307.546 328.064 300.623 333.213C294.359 337.866 288.447 342.262 278.112 342.262C255.571 342.262 232.43 339.954 232.192 339.935C231.839 339.897 231.582 339.773 231.467 339.573C231.315 339.373 231.305 339.087 231.41 338.753L255.028 262.694ZM286.15 376.854V406.136C286.15 408.538 284.557 409.368 282.593 407.966L281.125 406.927C279.17 405.535 277.549 402.417 277.549 400.014V370.733C277.549 368.33 279.17 367.491 281.125 368.902L282.593 369.941C284.557 371.333 286.15 374.451 286.15 376.854ZM140.801 353.627C138.551 352.788 138.665 352.273 141.058 352.493L269.321 364.154C271.714 364.373 273.678 366.518 273.678 368.921V398.889C273.678 401.292 271.828 402.579 269.569 401.74L140.801 353.627ZM476.16 482.166C476.16 484.588 475.178 488.268 473.986 490.347C473.986 490.347 453.2 526.951 349.127 526.951H349.118H349.099C245.045 526.951 224.259 490.347 224.259 490.347C223.077 488.259 222.095 484.588 222.095 482.166V432.928C222.095 430.526 223.372 430.058 224.926 431.889C224.926 431.889 255.409 467.826 349.118 467.826H349.137C442.835 467.826 473.318 431.889 473.318 431.889C474.872 430.068 476.15 430.526 476.15 432.928L476.16 482.166ZM476.16 412.295C476.16 414.698 475.178 418.369 473.986 420.466C473.986 420.466 453.2 457.051 349.127 457.051H349.118H349.099C245.045 457.051 224.259 420.466 224.259 420.466C223.077 418.359 222.095 414.698 222.095 412.295V393.693L269.616 413.134C271.838 414.049 275.146 416.08 276.987 417.644L282.812 422.64C284.643 424.214 288.114 425.501 290.526 425.501H407.709C410.102 425.501 413.583 424.214 415.404 422.64L421.249 417.644C423.07 416.08 426.397 414.049 428.619 413.134L476.141 393.693V412.295H476.16ZM557.701 353.627L428.924 401.73C426.674 402.569 424.834 401.282 424.834 398.88V368.921C424.834 366.518 426.779 364.373 429.181 364.154L557.453 352.493C559.856 352.273 559.971 352.788 557.701 353.627Z" fill="#006998"/>
<path d="M350.004 82.8962C202.72 82.8962 82.8763 202.72 82.8763 350.014C82.8763 497.299 202.71 617.123 350.004 617.123C497.298 617.123 617.122 497.299 617.122 350.014C617.122 202.72 497.298 82.8962 350.004 82.8962ZM541.101 193.329C542.789 195.379 544.39 197.476 546.011 199.574C547.003 200.88 548.014 202.158 548.986 203.493C550.121 205.047 551.227 206.639 552.342 208.222C553.716 210.196 555.098 212.179 556.442 214.21C557.167 215.316 557.863 216.441 558.597 217.576C560.199 220.102 561.772 222.648 563.279 225.251C563.422 225.48 563.555 225.718 563.698 225.947C564.051 226.538 564.395 227.149 564.738 227.759C566.235 230.381 567.665 233.032 569.047 235.682C569.629 236.807 570.211 237.913 570.783 239.048C571.908 241.289 572.957 243.539 574.015 245.799C574.807 247.486 575.607 249.174 576.332 250.871C577.038 252.454 577.686 254.046 578.334 255.639C579.326 258.003 580.299 260.377 581.195 262.78C581.519 263.6 581.796 264.43 582.101 265.259C583.235 268.377 583.96 270.513 583.96 270.513C584.723 272.792 585.352 274.689 585.352 274.689C585.371 274.699 585.934 276.634 586.601 278.942C586.601 278.942 589.729 289.573 591.388 297.115C591.426 297.315 591.483 297.516 591.531 297.716C592.189 300.796 592.761 303.894 593.314 307.003C593.504 308.033 593.705 309.062 593.876 310.102C594.267 312.485 594.572 314.869 594.896 317.253C595.144 319.112 595.402 320.981 595.612 322.85C595.802 324.556 595.945 326.254 596.098 327.97C596.327 330.601 596.555 333.224 596.689 335.874C596.765 336.999 596.803 338.124 596.851 339.25C596.994 342.425 597.089 345.609 597.099 348.813C597.099 349.213 597.099 349.595 597.099 349.995C597.099 350.396 597.099 350.787 597.099 351.187C597.089 354.372 596.984 357.547 596.851 360.722C596.803 361.866 596.765 363.01 596.689 364.164C596.555 366.767 596.336 369.37 596.098 371.954C595.945 373.708 595.802 375.453 595.592 377.208C595.392 379.019 595.154 380.821 594.916 382.623C594.591 385.074 594.267 387.534 593.876 389.965C593.705 390.938 593.523 391.863 593.352 392.835C592.77 396.02 592.208 399.205 591.521 402.37C591.492 402.465 591.483 402.561 591.454 402.647C589.786 410.265 587.774 417.788 585.4 425.225C585.39 425.273 585.371 425.33 585.362 425.368C584.37 428.505 583.254 431.613 582.139 434.712C581.815 435.561 581.529 436.409 581.195 437.268C580.308 439.642 579.345 441.978 578.363 444.323C577.705 445.944 577.038 447.565 576.332 449.167C575.617 450.845 574.826 452.504 574.063 454.154C572.995 456.442 571.908 458.73 570.764 461C570.211 462.087 569.648 463.174 569.076 464.251C567.636 467.026 566.149 469.762 564.604 472.499C564.518 472.632 564.442 472.756 564.375 472.88C564.032 473.481 563.689 474.091 563.336 474.673C561.753 477.409 560.094 480.079 558.416 482.72C557.815 483.674 557.196 484.637 556.576 485.59C555.146 487.793 553.63 489.967 552.123 492.112C551.141 493.523 550.15 494.944 549.129 496.326C548.023 497.842 546.879 499.32 545.744 500.808C544.257 502.705 542.798 504.622 541.254 506.5C540.586 507.31 539.89 508.102 539.223 508.912C537.201 511.315 535.943 512.764 535.943 512.764C534.341 514.566 532.901 516.187 532.729 516.378C532.729 516.378 532.729 516.378 532.567 516.55C527.485 522.118 522.155 527.448 516.606 532.53C516.406 532.702 516.225 532.883 516.043 533.054C513.717 535.162 511.362 537.164 508.959 539.176C508.13 539.872 507.319 540.596 506.47 541.283C504.63 542.789 502.742 544.239 500.874 545.688C499.348 546.861 497.851 548.034 496.287 549.168C494.924 550.16 493.551 551.123 492.187 552.086C490.004 553.621 487.792 555.147 485.542 556.625C484.626 557.216 483.72 557.797 482.796 558.398C480.135 560.095 477.418 561.754 474.681 563.366C473.976 563.776 473.28 564.186 472.555 564.577C469.809 566.159 467.034 567.647 464.25 569.115C463.173 569.668 462.086 570.24 461.008 570.784C458.73 571.937 456.441 573.015 454.134 574.092C452.484 574.846 450.835 575.627 449.176 576.362C447.545 577.058 445.915 577.735 444.303 578.402C441.948 579.365 439.622 580.328 437.257 581.224C436.399 581.549 435.531 581.835 434.683 582.159C431.594 583.284 428.495 584.38 425.348 585.391C425.32 585.401 425.32 585.401 425.32 585.401C425.262 585.41 423.336 585.973 421.019 586.612C421.019 586.612 403.552 591.522 392.453 593.458C391.681 593.591 390.899 593.744 390.127 593.877C387.523 594.306 384.892 594.649 382.279 595.002C380.649 595.202 379.028 595.441 377.369 595.612C375.471 595.832 373.545 595.994 371.629 596.165C369.207 596.375 366.795 596.585 364.354 596.719C363.038 596.814 361.722 596.852 360.406 596.909C357.403 597.043 354.4 597.119 351.367 597.128C351.12 597.148 350.862 597.148 350.595 597.148C349.918 597.148 349.203 597.148 348.517 597.128C345.484 597.109 342.443 597.033 339.449 596.909C338.2 596.852 336.951 596.814 335.702 596.738C333.194 596.585 330.696 596.385 328.198 596.156C326.358 595.984 324.536 595.841 322.706 595.631C320.961 595.431 319.226 595.202 317.5 594.964C314.992 594.64 312.475 594.306 309.967 593.887C309.061 593.744 308.175 593.572 307.269 593.4C304.046 592.838 300.804 592.247 297.582 591.551C297.524 591.541 297.524 591.541 297.524 591.541C297.458 591.522 295.493 591.036 293.157 590.473C293.157 590.473 282.421 587.88 275.07 585.525C274.898 585.467 274.717 585.41 274.526 585.353C271.504 584.38 268.51 583.322 265.535 582.245C264.562 581.892 263.599 581.558 262.646 581.205C260.358 580.347 258.117 579.413 255.857 578.488C254.15 577.782 252.425 577.096 250.718 576.323C249.135 575.627 247.562 574.893 245.998 574.159C243.614 573.063 241.24 571.947 238.904 570.755C237.884 570.24 236.873 569.716 235.863 569.182C233.059 567.723 230.275 566.207 227.51 564.643C227.138 564.414 226.747 564.195 226.366 563.976C226.042 563.795 225.737 563.623 225.403 563.423C222.647 561.821 219.958 560.152 217.289 558.455C216.316 557.845 215.344 557.225 214.371 556.596C212.188 555.166 210.052 553.669 207.916 552.172C206.476 551.18 205.046 550.169 203.635 549.13C202.147 548.053 200.717 546.918 199.258 545.802C197.304 544.306 195.34 542.809 193.461 541.245C192.689 540.616 191.955 539.958 191.173 539.328C188.722 537.259 186.272 535.171 183.907 533.026C183.783 532.921 183.698 532.826 183.593 532.74C177.862 527.505 170.187 519.458 170.187 519.458C168.528 517.713 167.136 516.273 167.126 516.245C167.097 516.216 165.734 514.681 164.151 512.869C164.151 512.869 162.702 511.229 160.585 508.693C159.994 508.006 159.403 507.31 158.812 506.624C157.219 504.65 155.675 502.638 154.121 500.626C153.053 499.244 151.966 497.861 150.945 496.45C149.858 494.972 148.819 493.475 147.761 491.959C146.312 489.9 144.881 487.831 143.499 485.714C142.812 484.694 142.145 483.635 141.477 482.596C139.837 480.012 138.226 477.4 136.672 474.739C136.462 474.368 136.262 474.005 136.043 473.643C135.814 473.223 135.566 472.804 135.327 472.394C133.802 469.715 132.353 467.007 130.913 464.28C130.35 463.193 129.769 462.115 129.244 461.019C128.081 458.74 127.013 456.452 125.936 454.163C125.173 452.504 124.391 450.874 123.685 449.196C122.97 447.575 122.293 445.935 121.607 444.285C120.644 441.968 119.7 439.651 118.813 437.306C118.479 436.419 118.174 435.523 117.841 434.645C116.735 431.585 115.648 428.515 114.656 425.416C114.627 425.32 114.618 425.216 114.57 425.13C112.234 417.797 110.241 410.36 108.582 402.847C108.554 402.666 108.496 402.504 108.468 402.322C107.8 399.224 107.219 396.087 106.666 392.978C106.494 391.958 106.303 390.957 106.132 389.946C105.741 387.553 105.417 385.141 105.102 382.738C104.845 380.888 104.606 379.038 104.396 377.189C104.196 375.472 104.063 373.766 103.91 372.049C103.672 369.418 103.443 366.786 103.309 364.145C103.233 363.02 103.195 361.904 103.147 360.789C103.023 357.623 102.928 354.439 102.919 351.244C102.919 350.701 102.919 350.157 102.919 349.614C102.919 349.366 102.919 349.118 102.919 348.87C102.928 345.667 103.033 342.482 103.147 339.316C103.195 338.163 103.233 337.009 103.309 335.865C103.462 333.252 103.672 330.649 103.901 328.056C104.072 326.311 104.206 324.575 104.406 322.85C104.616 321.009 104.854 319.179 105.112 317.348C105.426 314.926 105.75 312.504 106.141 310.092C106.313 309.091 106.485 308.099 106.675 307.108C107.238 303.971 107.81 300.834 108.477 297.716C108.525 297.544 108.563 297.382 108.592 297.211C110.27 289.63 113.397 278.932 113.397 278.932C114.074 276.625 114.637 274.737 114.637 274.718C114.637 274.718 115.276 272.82 116.048 270.542C116.048 270.542 116.763 268.387 117.898 265.269C118.203 264.439 118.489 263.619 118.794 262.79C119.709 260.397 120.682 258.022 121.654 255.648C122.331 254.056 122.98 252.464 123.657 250.881C124.4 249.184 125.182 247.505 125.974 245.818C127.032 243.558 128.09 241.298 129.225 239.067C129.778 237.942 130.379 236.836 130.96 235.711C132.353 233.041 133.802 230.381 135.299 227.74C135.585 227.215 135.89 226.691 136.195 226.176C136.367 225.88 136.529 225.585 136.72 225.289C138.245 222.658 139.847 220.093 141.449 217.547C142.154 216.451 142.841 215.364 143.546 214.286C144.9 212.217 146.302 210.186 147.723 208.174C148.791 206.639 149.878 205.085 151.003 203.569C151.994 202.196 153.034 200.871 154.063 199.526C155.646 197.476 157.238 195.417 158.878 193.414C159.412 192.756 159.965 192.118 160.518 191.469C167.689 182.907 175.412 174.802 183.669 167.289C183.755 167.213 183.822 167.136 183.907 167.07C186.301 164.886 188.789 162.789 191.259 160.71C191.993 160.09 192.708 159.461 193.452 158.851C195.368 157.277 197.351 155.761 199.325 154.245C200.755 153.158 202.167 152.043 203.635 150.965C205.056 149.917 206.524 148.906 207.973 147.876C210.1 146.398 212.207 144.92 214.371 143.509C215.353 142.861 216.354 142.241 217.346 141.612C220.006 139.924 222.705 138.255 225.431 136.654C225.698 136.511 225.946 136.368 226.204 136.215C226.652 135.958 227.11 135.7 227.548 135.433C230.304 133.86 233.097 132.353 235.891 130.895C236.902 130.37 237.894 129.836 238.914 129.321C241.269 128.129 243.653 127.014 246.027 125.908C247.59 125.183 249.164 124.439 250.746 123.753C252.453 123 254.179 122.304 255.886 121.589C258.145 120.664 260.386 119.739 262.655 118.871C263.628 118.499 264.591 118.175 265.564 117.832C268.538 116.745 271.532 115.677 274.555 114.714C274.727 114.647 274.908 114.6 275.098 114.552C282.412 112.216 289.839 110.233 297.353 108.593C297.448 108.574 297.448 108.574 297.448 108.574C297.562 108.545 299.593 108.135 301.939 107.658C301.939 107.658 304.018 107.248 307.231 106.676C308.156 106.504 309.09 106.323 310.044 106.171C312.504 105.77 314.954 105.437 317.443 105.112C319.226 104.874 320.999 104.626 322.801 104.435C324.584 104.235 326.339 104.083 328.131 103.93C330.696 103.701 333.242 103.491 335.826 103.339C337.018 103.272 338.19 103.234 339.382 103.177C342.481 103.043 345.589 102.958 348.717 102.938C349.251 102.938 349.775 102.938 350.3 102.938C350.633 102.938 350.967 102.938 351.301 102.938C354.438 102.948 357.546 103.043 360.645 103.177C361.846 103.234 363.057 103.272 364.249 103.348C366.833 103.491 369.36 103.701 371.915 103.93C373.698 104.092 375.491 104.235 377.274 104.435C379.066 104.636 380.84 104.874 382.613 105.112C385.102 105.446 387.571 105.77 390.012 106.171C390.975 106.333 391.919 106.514 392.873 106.676C396.057 107.239 399.223 107.83 402.379 108.507C402.522 108.535 402.655 108.564 402.789 108.593C410.312 110.242 417.749 112.235 425.072 114.571C425.205 114.609 425.329 114.647 425.463 114.695C428.514 115.677 431.555 116.745 434.559 117.841C435.484 118.185 436.447 118.509 437.381 118.862C439.669 119.729 441.939 120.664 444.189 121.589C445.905 122.294 447.602 122.981 449.3 123.734C450.882 124.43 452.475 125.174 454.038 125.908C456.422 127.014 458.796 128.129 461.151 129.312C462.162 129.827 463.154 130.351 464.164 130.875C466.939 132.325 469.714 133.822 472.46 135.385C473.089 135.748 473.089 135.748 473.089 135.748C473.795 136.148 474.443 136.53 474.538 136.577C474.538 136.577 474.538 136.577 474.615 136.625C477.332 138.217 480.002 139.857 482.662 141.545C483.673 142.193 484.722 142.842 485.723 143.509C487.858 144.901 489.928 146.36 492.006 147.819C493.494 148.858 494.981 149.897 496.459 150.965C497.889 152.014 499.281 153.101 500.673 154.179C502.666 155.723 504.668 157.258 506.623 158.86C507.329 159.442 508.015 160.043 508.721 160.634C511.238 162.741 513.736 164.867 516.158 167.079C516.206 167.117 516.206 167.117 516.206 167.117C516.263 167.165 517.722 168.576 519.447 170.264C519.447 170.264 532.405 182.936 539.623 191.574C540.09 192.146 540.605 192.728 541.101 193.329Z" fill="#006998"/>
</svg>
